<svg width="507" height="132" viewBox="0 0 507 132" fill="none" xmlns="http://www.w3.org/2000/svg">
<path d="M34.5667 27.6824C36.3734 26.6087 39.1341 25.5959 42.8286 24.6235C46.5434 23.6511 50.2785 23.1649 54.0339 23.1649C59.4133 23.1649 64.1431 23.955 68.2639 25.5351C72.405 27.0747 75.0642 29.5056 76.2619 32.8279C78.1903 38.3988 80.2812 44.8813 82.5344 52.2957C84.8079 59.6695 87.0612 67.3067 89.3144 75.1668C91.5677 83.0471 93.76 90.8261 95.9118 98.4835C98.0635 106.161 99.9514 112.927 101.575 118.822C100.276 120.301 98.3274 121.517 95.7494 122.428C93.1916 123.34 90.1264 123.806 86.5943 123.806C83.996 123.806 81.8036 123.583 80.0173 123.137C78.2715 122.712 76.8302 122.084 75.6935 121.253C74.577 120.382 73.6635 119.268 72.953 117.87C72.2629 116.472 71.6539 114.852 71.1058 113.049L68.2233 101.948H39.0529C38.2003 105.169 37.3477 108.491 36.4952 111.914C35.6223 115.338 34.7697 118.66 33.8968 121.881C32.3947 122.408 30.8113 122.854 29.1467 123.218C27.4822 123.603 25.4725 123.806 23.1178 123.806C17.6369 123.806 13.577 122.874 10.9381 121.01C8.29917 119.126 7 116.533 7 113.211C7 111.692 7.203 110.193 7.62929 108.693C8.07587 107.194 8.56306 105.432 9.09085 103.386C9.84193 100.489 10.8975 96.8831 12.2373 92.6087C13.5973 88.3141 15.0792 83.6751 16.6626 78.7119C18.2662 73.7285 19.9917 68.6235 21.8186 63.3564C23.6659 58.1097 25.371 53.1465 26.9747 48.4872C28.5987 43.8279 30.0805 39.675 31.4203 36.0489C32.7601 32.3822 33.7953 29.6069 34.5667 27.6824ZM53.8715 48.4062C52.3897 52.9034 50.6845 57.9274 48.7967 63.4375C46.9088 68.9679 45.2239 74.559 43.7218 80.2312H63.7168C62.2146 74.4577 60.6719 68.8058 59.1088 63.2754C57.566 57.7653 56.1451 52.8021 54.8662 48.4062H53.8715ZM157.297 121.557C156.12 121.881 154.253 122.185 151.715 122.509C149.198 122.813 146.701 122.975 144.225 122.975C141.768 122.975 139.596 122.793 137.708 122.428C135.841 122.064 134.258 121.395 132.938 120.423C131.659 119.45 130.685 118.134 130.035 116.432C129.406 114.69 129.101 112.441 129.101 109.666V24.7855C130.279 24.583 132.146 24.2791 134.724 23.9145C137.323 23.5296 139.799 23.327 142.154 23.327C144.61 23.327 146.782 23.5296 148.67 23.9145C150.558 24.2791 152.162 24.9476 153.441 25.92C154.719 26.8721 155.673 28.1889 156.303 29.931C156.973 31.6327 157.297 33.8813 157.297 36.6769V121.557Z" stroke="#C53771" stroke-width="13"/>
<path d="M34.5622 27.6292C36.3892 26.6163 39.1499 25.6034 42.8444 24.631C46.5795 23.6587 50.3147 23.1725 54.0498 23.1725C59.4088 23.1725 64.1386 23.9625 68.2594 25.5224C72.4208 27.0417 75.1003 29.4727 76.298 32.8152C78.1859 38.3861 80.2767 44.8686 82.5502 52.2627C84.8238 59.6771 87.0567 67.3143 89.2897 75.1946C91.5632 83.0951 93.7556 90.8741 95.8667 98.5316C98.0185 106.149 99.9266 112.915 101.551 118.789C100.251 120.309 98.3027 121.524 95.7043 122.436C93.1466 123.347 90.122 123.813 86.6101 123.813C84.0118 123.813 81.8195 123.591 80.0331 123.165C78.2874 122.719 76.8664 122.091 75.7296 121.22C74.5928 120.37 73.6591 119.255 72.9689 117.898C72.2584 116.5 71.6291 114.88 71.1013 113.036L68.2594 101.935H39.0281C38.2162 105.176 37.3636 108.539 36.511 111.983C35.6381 115.386 34.7652 118.688 33.9127 121.869C32.3902 122.395 30.7865 122.861 29.122 123.246C27.498 123.611 25.4884 123.813 23.1133 123.813C17.6325 123.813 13.5726 122.861 10.9336 120.977C8.3353 119.093 7.03613 116.5 7.03613 113.198C7.03613 111.699 7.23913 110.2 7.68572 108.742C8.112 107.242 8.57889 105.46 9.06608 103.393C9.81716 100.476 10.8727 96.8907 12.2328 92.6163C13.5726 88.3622 15.0341 83.7434 16.6175 78.76C18.2415 73.736 19.9669 68.6108 21.8142 63.364C23.6411 58.1375 25.3463 53.1946 26.9296 48.5353C28.5536 43.8355 30.0355 39.6826 31.3955 36.0565C32.7353 32.3898 33.7909 29.574 34.5622 27.6292ZM53.8874 48.3732C52.3649 52.911 50.6597 57.9349 48.7719 63.445C46.9246 68.9552 45.2398 74.5463 43.7376 80.2185H63.7123C62.1899 74.445 60.6471 68.7931 59.084 63.283C57.5616 57.7729 56.1609 52.8097 54.8617 48.3732H53.8874Z" fill="#FFF4F7"/>
<path d="M157.283 121.546C156.085 121.87 154.218 122.194 151.68 122.518C149.183 122.842 146.687 123.004 144.21 123.004C141.774 123.004 139.602 122.802 137.714 122.437C135.806 122.072 134.223 121.384 132.923 120.411C131.665 119.439 130.731 118.122 130.082 116.441C129.432 114.719 129.107 112.45 129.107 109.634V24.7944C130.285 24.5918 132.152 24.2879 134.71 23.903C137.308 23.5384 139.785 23.3358 142.18 23.3358C144.616 23.3358 146.768 23.5384 148.676 23.903C150.564 24.2879 152.127 24.9564 153.385 25.9288C154.685 26.8607 155.659 28.1774 156.309 29.8994C156.958 31.6415 157.283 33.9104 157.283 36.706V121.546Z" fill="#FFF4F7"/>
<path d="M199.825 129.65C194.628 129.65 190.507 128.151 187.483 125.112C184.438 122.094 182.936 117.961 182.936 112.715V18.8803C184.235 18.6777 186.346 18.3536 189.269 17.9079C192.192 17.4825 194.973 17.2596 197.633 17.2596C200.434 17.2596 202.91 17.4825 205.022 17.9079C207.133 18.3536 208.919 19.1031 210.381 20.1768C211.842 21.2707 212.918 22.7698 213.629 24.7145C214.38 26.6593 214.765 29.2118 214.765 32.3315V104.044H256.42C257.232 105.401 257.983 107.184 258.693 109.392C259.444 111.621 259.83 113.93 259.83 116.361C259.83 121.223 258.795 124.667 256.745 126.652C254.674 128.657 251.954 129.65 248.544 129.65H199.825Z" fill="#C53771"/>
<path d="M289.569 23.4627C291.649 24.9791 288.564 22.1593 291.649 19.0193C307.351 19.0193 284.474 23.4627 289.569 23.4627C273.462 26.0963 291.649 27.3521 289.569 23.4627C292.655 26.6027 295.547 18.7588 295.547 23.3371C284.179 30.3056 292.655 24.0462 289.569 27.2267C280.75 22.5267 296.724 23.3371 291.649 23.3371C286.554 23.3371 294.735 24.5323 291.649 21.3923C288.564 18.2118 289.569 28.0613 289.569 23.4627ZM305.453 128.921C304.154 129.124 302.164 129.448 299.525 129.893C296.927 130.319 294.288 130.542 291.649 130.542C288.99 130.542 286.574 130.339 284.422 129.974C282.311 129.59 280.525 128.88 279.063 127.787C277.642 126.713 276.546 125.254 275.734 123.411C274.922 121.527 274.516 119.076 274.516 116.037V42.1365C275.856 41.9339 277.845 41.6098 280.444 41.1641C283.042 40.7387 285.681 40.5158 288.401 40.5158C291.04 40.5158 293.435 40.7184 295.547 41.0831C297.658 41.4072 299.444 42.1365 300.906 43.2709C302.367 44.3648 303.463 45.8437 304.235 47.7276C305.047 49.5711 305.453 52.002 305.453 55.0205V128.921Z" fill="#C53771"/>
<path d="M411.459 113.12C410.85 118.793 409.186 123.148 406.425 126.166C403.705 129.185 399.767 130.704 394.57 130.704C390.672 130.704 387.201 129.772 384.177 127.949C381.132 126.065 377.884 122.885 374.433 118.387L356.407 95.8607V128.921C355.047 129.124 353.078 129.448 350.479 129.894C347.881 130.319 345.242 130.542 342.603 130.542C339.883 130.542 337.488 130.34 335.377 129.975C333.265 129.59 331.479 128.881 330.018 127.787C328.556 126.713 327.419 125.255 326.607 123.411C325.836 121.527 325.47 119.076 325.47 116.037V10.9399C326.81 10.5753 328.8 10.1701 331.398 9.72442C333.996 9.29901 336.615 9.07617 339.274 9.07617C341.913 9.07617 344.308 9.27875 346.42 9.64339C348.571 10.0283 350.398 10.7576 351.86 11.8312C353.321 12.9252 354.418 14.404 355.189 16.288C356.001 18.1922 356.407 20.6434 356.407 23.6618V71.5513L387.668 39.625C394.002 39.625 399.056 41.043 402.852 43.8386C406.689 46.5937 408.617 50.078 408.617 54.2916C408.617 56.1351 408.292 57.8165 407.643 59.3156C407.034 60.8349 406.1 62.3745 404.801 63.9344C403.542 65.5145 401.918 67.1756 399.929 68.9583C397.919 70.7005 395.585 72.6857 392.946 74.9546L382.39 84.0301L411.459 113.12Z" fill="#C53771"/>
<path d="M468.756 132C461.61 132 454.972 130.987 448.862 129.002C442.732 127.017 437.413 124.018 432.866 120.007C428.319 116.017 424.706 110.993 422.067 104.936C419.469 98.8987 418.169 91.8085 418.169 83.7054C418.169 75.7238 419.469 68.8564 422.067 63.1234C424.706 57.3499 428.157 52.6299 432.379 48.9429C436.642 45.2763 441.494 42.582 446.914 40.8398C452.374 39.0571 457.956 38.1658 463.64 38.1658C470.075 38.1658 475.921 39.1381 481.179 41.0829C486.477 42.9871 491.024 45.6207 494.82 49.024C498.657 52.4273 501.641 56.5194 503.752 61.2597C505.904 65.9595 507 71.105 507 76.6556C507 80.768 505.823 83.9079 503.508 86.0553C501.174 88.2229 497.946 89.6207 493.846 90.2689L448.943 96.9945C450.283 100.945 453.024 103.923 457.144 105.908C461.245 107.913 465.995 108.906 471.354 108.906C476.267 108.906 480.956 108.298 485.401 107.042C489.827 105.746 493.44 104.267 496.201 102.586C498.149 103.781 499.794 105.483 501.154 107.691C502.494 109.858 503.184 112.147 503.184 114.578C503.184 120.048 500.606 124.099 495.47 126.733C491.613 128.799 487.269 130.157 482.397 130.866C477.566 131.615 473.019 132 468.756 132ZM463.64 60.6925C460.758 60.6925 458.241 61.1787 456.089 62.151C453.978 63.0829 452.232 64.2984 450.892 65.7974C449.593 67.3168 448.578 69.0184 447.888 70.9024C447.238 72.8067 446.853 74.7109 446.751 76.6556L477.85 71.5507C477.464 69.1197 476.104 66.7293 473.79 64.3389C471.516 61.9079 468.126 60.6925 463.64 60.6925Z" fill="#C53771"/>
<mask id="mask0_11_402" style="mask-type:luminance" maskUnits="userSpaceOnUse" x="272" y="3" width="36" height="29">
<path d="M272.03 3.09204H307.108V31.9133H272.03V3.09204Z" fill="white"/>
</mask>
<g mask="url(#mask0_11_402)">
<path d="M302.45 4.21627C297.924 1.7124 292.375 3.64378 290.056 8.53058C289.841 8.98212 289.662 9.55036 289.512 10.2091C289.362 9.55036 289.182 8.98212 288.967 8.53058C286.648 3.64378 281.099 1.7124 276.573 4.21627C273.149 6.10936 271.566 10.1976 272.206 14.2135C272.396 15.4101 272.776 16.5016 273.29 17.5086C274.646 20.1632 276.935 22.2307 279.153 24.0983C282.401 26.8325 285.921 29.5564 289.461 31.8244C289.465 31.8639 289.467 31.8852 289.467 31.8852C289.482 31.8761 289.497 31.8664 289.512 31.8567C289.527 31.8664 289.542 31.8761 289.557 31.8852C289.557 31.8852 289.559 31.8639 289.562 31.8244C293.102 29.5564 296.623 26.8325 299.87 24.0983C302.089 22.2307 304.377 20.1632 305.733 17.5086C306.247 16.5016 306.627 15.4101 306.818 14.2135C307.458 10.1976 305.874 6.10936 302.45 4.21627Z" fill="#C53771"/>
</g>
</svg>
